<svg enable-background="new 0 0 1000 1000" version="1.1" viewBox="0 0 1e3 1e3" xml:space="preserve" xmlns="http://www.w3.org/2000/svg">

<g fill="#969696"><g fill="#969696"><g fill="#969696"><path d="m932.5 10h-865c-23.6 0-42.7 19.1-42.7 42.7v592.6c0 23.6 19.1 42.6 42.7 42.6h280.3l-208.7 230.9c-15.8 17.5-14.4 44.4 3.1 60.3 8.2 7.4 18.3 11 28.6 11 11.7 0 23.3-4.7 31.7-14l260.4-288.1h76.9l260.5 288c8.4 9.3 20 14 31.6 14 10.3 0 20.4-3.6 28.6-11 17.4-15.8 18.8-42.8 3.1-60.3l-208.8-230.8h277.7c23.7 0 42.7-19.1 42.7-42.6v-592.6c0-23.6-19-42.7-42.7-42.7zm-42.6 592.6h-779.7v-507.3h779.7v507.3z"/><path d="m212 529.4c13.5 0 26.9-6.4 35.1-18.4l96.7-139.7 56.8 84.5c8.1 12 23.3 17 36 18.9 14.5-0.2 27.8-7.8 35.5-20.1l100.7-161.4 97.5 163.9c7.5 12.5 20.9 20.3 35.4 20.8 14.6 0.8 28.3-6.7 36.6-18.7l81.2-119.6c13.2-19.5 8-46.1-11.4-59.3-19.4-13.3-46-8.1-59.2 11.3l-43.5 64.1-98.9-166.3c-7.6-12.8-21.3-20.7-36.1-20.8-18 0.3-28.8 7.4-36.7 20.1l-103 164.8-54.9-81.9c-7.9-11.7-21-18.8-35.1-18.9h-0.3c-14 0-27.1 6.9-35.1 18.4l-132.4 191.3c-13.4 19.4-8.6 46 10.9 59.3 7.4 5.2 15.8 7.7 24.2 7.7z"/></g></g></g>
</svg>
