<svg width="17.37mm" height="17.37mm" version="1.1" viewBox="0 0 17.37 17.37" xmlns="http://www.w3.org/2000/svg"><g transform="translate(-61.618 -79.672)"><path d="m69.103 79.692c-0.7921 0.07526-1.5536 0.36808-2.1797 0.99414-0.96724 0.96723-1.0232 2.2401-0.82226 3.4688-1.2284-0.2007-2.4998-0.14477-3.4668 0.82227-1.2521 1.2521-1.1782 3.0434-0.67773 4.5449 0.50051 1.5015 1.4779 2.9955 2.832 4.3496s2.8481 2.3315 4.3496 2.832 3.2928 0.57437 4.5449-0.67773c0.9673-0.96727 1.0232-2.24 0.82227-3.4688 1.2284 0.20071 2.4998 0.14669 3.4668-0.82031 1.2521-1.2521 1.1782-3.0454 0.67774-4.5469-0.5005-1.5015-1.4779-2.9955-2.832-4.3496s-2.8481-2.3296-4.3496-2.8301c-0.75076-0.25025-1.5731-0.39362-2.3652-0.31836zm0.25195 3.4277c-0.06232 0.06232 0.18778-0.12686 1.0254 0.15234s1.9804 0.97646 3.0059 2.002c1.0255 1.0255 1.7208 2.1663 2 3.0039s0.09198 1.0877 0.1543 1.0254c0.06232-0.06232-0.18778 0.12491-1.0254-0.1543-0.817-0.27233-1.926-0.9668-2.9316-1.9512-0.02107-0.02133-0.03343-0.04515-0.05469-0.06641-0.02194-0.02194-0.04635-0.0349-0.06836-0.05664-0.98436-1.0056-1.6788-2.1127-1.9512-2.9297-0.2792-0.83762-0.09198-1.0877-0.1543-1.0254zm-4.2891 4.2891c-0.06231 0.06232 0.18777-0.1249 1.0254 0.1543 0.81575 0.27191 1.9233 0.96537 2.9277 1.9473 0.02276 0.02306 0.03561 0.04929 0.05859 0.07227 0.023 0.023 0.04918 0.03581 0.07227 0.05859 0.9819 1.0044 1.6754 2.112 1.9473 2.9277 0.2792 0.83762 0.09198 1.0877 0.1543 1.0254s-0.18777 0.12492-1.0254-0.15429c-0.83762-0.27921-1.9804-0.9745-3.0059-2s-1.7208-2.1682-2-3.0059c-0.27921-0.83762-0.09198-1.0877-0.1543-1.0254z" color="#000000" color-rendering="auto" dominant-baseline="auto" fill="#000002" image-rendering="auto" shape-rendering="auto" solid-color="#000000" style="font-feature-settings:normal;font-variant-alternates:normal;font-variant-caps:normal;font-variant-ligatures:normal;font-variant-numeric:normal;font-variant-position:normal;isolation:auto;mix-blend-mode:normal;shape-padding:0;text-decoration-color:#000000;text-decoration-line:none;text-decoration-style:solid;text-indent:0;text-orientation:mixed;text-transform:none;white-space:normal"/></g></svg>
