<svg width="16" height="16" version="1.1" viewBox="0 0 16 16" xmlns="http://www.w3.org/2000/svg" fill="#fff">
	<path d="m1.5 2c-0.2 0.05-0.5 0.29-0.5 0.5v11c0 0.23 0.274 0.5 0.5 0.5h13c0.34 0 0.5-0.26 0.5-0.5v-11c0-0.34-0.249-0.5-0.5-0.5h-13zm0.5 1h12v10h-12v-10zm5.0781 1.002c-0.3791 0.033507-0.6724 0.25241-0.90039 0.50781s-0.41478 0.56938-0.58594 0.92383c-0.34232 0.70889-0.62145 1.5915-0.85352 2.4648-0.46415 1.7467-0.72461 3.4609-0.72461 3.4609a0.52155 0.52155 0 1 0 1.0273 0.1582s0.25941-1.6762 0.70508-3.3535c0.22284-0.83862 0.49504-1.6746 0.78516-2.2754 0.14506-0.30038 0.29747-0.54006 0.42383-0.68164 0.0075293-0.007884 0.0045246-0.0038347 0.011719-0.011719 0.0080614 0.06051 0.020302 0.067644 0.023438 0.14648 0.017483 0.43944-0.043818 1.1088-0.10156 1.7969-0.057745 0.68806-0.11615 1.3973-0.080078 1.9941 0.018035 0.29845 0.055994 0.57107 0.16602 0.83203 0.11002 0.26096 0.36414 0.55064 0.71484 0.60547 0.25574 0.040012 0.53409-0.035104 0.72461-0.16992 0.19051-0.13482 0.31218-0.30521 0.41211-0.48047 0.19988-0.3505 0.31726-0.75128 0.43164-1.1328 0.10848-0.36188 0.21206-0.69384 0.31055-0.91211 0.053103 0.16379 0.103 0.35994 0.15039 0.60352 0.057697 0.29652 0.11423 0.6108 0.19727 0.89453 0.041519 0.14191 0.083174 0.27957 0.16797 0.41992 0.084797 0.14034 0.23582 0.3137 0.49024 0.37305 0.38234 0.089286 0.67684-0.11027 0.86523-0.28516 0.1884-0.17503 0.33108-0.37615 0.45508-0.57422 0.24799-0.39613 0.41602-0.79297 0.41602-0.79297a0.52342 0.52342 0 0 0-0.96289-0.41211s-0.14656 0.34165-0.33984 0.65039c-0.04401 0.070365-0.082047 0.10649-0.12695 0.16602-0.044138-0.1833-0.090518-0.39119-0.13867-0.63867-0.060331-0.31006-0.1214-0.62986-0.24219-0.92773-0.06039-0.14901-0.13516-0.29677-0.26172-0.43555-0.12656-0.13876-0.33624-0.26817-0.57031-0.28516-0.26299-0.01971-0.51897 0.1005-0.67969 0.25-0.16072 0.1494-0.26 0.31975-0.34375 0.49414-0.16748 0.34877-0.27309 0.74267-0.38477 1.1152-0.11168 0.37258-0.23018 0.72325-0.33789 0.91211-0.0040603 0.007884-0.0038311 0.0077588-0.0078125 0.013672-0.023177-0.092834-0.052383-0.18016-0.0625-0.34766-0.028534-0.4721 0.020704-1.1556 0.078125-1.8398 0.057423-0.68424 0.12192-1.3668 0.099609-1.9277-0.011156-0.28047-0.033061-0.53003-0.14258-0.7832-0.054759-0.12654-0.13975-0.26141-0.28516-0.36914-0.14541-0.10781-0.34963-0.16186-0.52344-0.14648z" />
</svg>
